<?xml version="1.0" encoding="utf-8"?>
<!-- Generator: Adobe Illustrator 27.5.0, SVG Export Plug-In . SVG Version: 6.00 Build 0)  -->
<svg version="1.1" id="Layer_1" xmlns="http://www.w3.org/2000/svg" xmlns:xlink="http://www.w3.org/1999/xlink" x="0px" y="0px"
	 viewBox="0 0 1226.8 512" style="enable-background:new 0 0 1226.8 512;" xml:space="preserve">
<style type="text/css">
	.st0{fill:#63CECE;}
	.st1{fill:#408689;}
	.st2{fill:#37575E;}
	.st3{fill:#FFFFFF;}
	.st4{fill:none;stroke:#FFFFFF;stroke-width:2;stroke-miterlimit:10;}
</style>
<rect x="37.8" y="39.8" class="st0" width="436.6" height="436.6"/>
<path class="st1" d="M333,38.9c7-0.1,13.9-0.3,20.9-0.3c38.8,0,77.6,0,116.4,0.1c1.6,0,3.2,0.8,4.8,1.3c-1.2,0.8-2.7,1.3-3.7,2.3
	c-10.5,10.4-21,20.9-31.4,31.3c-0.7,0.7-1.2,1.7-2.6,3.8c2.5-1.2,3.7-2.2,4.7-2.2c3,0.2,6.7-2.1,8.8,2.2c0.7,1.5,1.9,3.9,2.8,3.9
	c2.9-0.2,5.2-1.6,5.3-5.3c0.1-3.3,0-6.9,1.2-9.8c1.9-4.6,4.5-9,7.7-12.9c0.8-1,4.7,0.4,7.1,0.7c0.1,1,0.3,2,0.3,3
	c0,60.3,0,120.6-0.1,180.9c0,0.7-0.1,1.3-0.2,2c-14.7-0.2-29.3,0.1-42.7,7.3c-4.8,2.6-9.3,6-13.9,9c0.4,0.6,0.8,1.2,1.2,1.8
	c1.6-1,3.2-1.8,4.6-2.9c8.2-6.2,21.7-6.5,28.6-1.9s14.7,8,22.1,11.9c0.1,18.6,0.2,37.3,0.2,55.9c0,37.1,0,74.3,0,111.4
	c0,0.8-0.2,1.6-0.2,2.5c-3.6,1.8-7.5,3.1-10.8,5.5c-3.2,2.3-5.2,3.1-8.2-0.5c-11.1-13.2-22.5-26.1-33.8-39.1
	c-8.3-9.5-16.5-19.1-24.8-28.5c-5.5-6.2-10.9-13-20.8-11.3c-0.8,0.1-1.7-0.1-2.4-0.5c-9.1-4.8-18.8-8.5-25.5-17
	c-0.9-1.1-2.7-2.6-3.5-2.3c-4.7,1.8-7.6-1.1-10.4-3.9c-2.2,5.7-4.2,11-6.2,16.3c-0.7-7.9-0.7-15.4-0.7-22.8
	c0-11.5-1.2-13.7-12.4-12.9c-4.1,0.3-7.2-1.4-9.9-6.2c6.7,0,12.5,0,19.7,0c-2-2.4-2.7-3.8-3.8-4.6c-5.2-4.1-10.6-7.9-15.8-12
	c-6.6-5.2-13.5-3.3-21.5-1.4c5.4,7.2,9.8,14,15.2,20c4.8,5.2,4.3,13.8,1.3,18.4c-1.3-0.5-3.2-1.8-3.6-1.4c-1.1,0.9-1.7,2.6-2,4
	c-0.3,1.6,0,3.3-0.1,5c-0.6,12.4-9.8,21.8-22.5,22.8c-0.5-1.7-1-3.4-1.4-5.2c-0.6-2.4-0.3-5.9-1.7-6.9c-3.9-2.6-3.1-6.2-3.4-9.7
	c-0.2-2.1-0.9-4.6-2.2-6.1c-2.3-2.6-5.4-4.6-7.8-6.6c-3-0.3-6.2-0.5-9.7-0.9c-3,3.2-6.7,6.9-10.2,10.8c-0.5,0.6-0.4,2.2,0,3.1
	c2.3,5.1,4.7,10,7.4,15.5c-2.6,2.7-5.9,6.5-10.5,3.4c-4.8-3.2-9.2-7.1-12.9-11.5c-7.2-8.3-8.4-18.8-8.9-29.4c-0.2-3.7,0-7.3,0-11
	c-1.6,0.1-2,0-2.2,0.2c-0.6,0.3-1.4,0.6-1.6,1.1c-4.1,9.8-12.7,11.2-21.8,11.9c-2.2,0.2-4.5,0.5-7.4,0.8c0-2.7,0-4.6,0-6.6
	c0-17.2,0.1-34.3-0.1-51.5c0-2-1-5.2-2.2-5.6c-2.8-0.9-5.9-1.2-8.3,2.4c-6.6,9.9-15,18.1-24.6,25.2c-4.7,3.5-8.6,8.2-12.8,12.4
	c-2.5,2.6-4.8,5.4-6.9,7.8c-12.7-8.4-24.4-16.1-36.1-23.8c1.5-1,2.5-1,3.5-0.8c4.7,1.1,9.3,2.2,14,3.3c4.4,1.1,9.1,1.7,13.3,3.6
	c5.9,2.6,10.9,2.6,16.1-1.6c5-4.1,10.6-7.4,15.8-11.3c6.2-4.7,11.5-10.2,14.9-16c-8.7-7.8-16.8-15-24.9-22.3
	c-0.3,0.2-0.5,0.4-0.8,0.6c3.5,6,7,12,10.5,18c-6.9-6.6-12.9-13.5-18.9-20.5c-0.1-0.1-0.2-0.3-0.2-0.4c-2.6-6.5-7.3-9.8-14.4-10.3
	c-2-0.1-4-1.7-5.9-2.6c1.4-2.9,2.4-5,3.4-7.2c-0.6-0.4-1.2-0.7-1.9-1.1c-1.1,1.8-3,3.4-3.3,5.3c-0.6,4-2.8,5.2-6.2,4.7
	c-5.7-0.9-11.4-2.1-17.1-3.1c-1.8-0.3-3.7-0.2-6.2-0.4c3.5,8.1,11.3,7.4,16.2,11.9c-2.6,1-5.2,1.2-7.7,1.1
	c-5.9-0.4-11.7-1.4-17.6-1.4c-2.5,0-5.7,1.2-7.4,2.9c-5.1,5.2-8.9,5.4-11.9-1.1c-2.7-5.9-6.5-11.4-6.4-18.6c0.1-3.3,0.2-8.3-6-7.4
	c-0.2-1.1-0.4-2.3-0.4-3.4c0.1-29.7,0.1-59.4,0.2-89.1c0-0.8,0.2-1.6,0.3-2.5c9.2-0.1,11.7-3.4,9.4-12.4c-1.5-5.9-3.6-11.7-4.7-17.7
	c-1-5.5-1.6-11.2-1.4-16.8c0.1-2.4,2-5.2,4-6.8c0.9-0.7,4.1,0.6,5.7,1.8c2.8,2,5.3,4.6,7.7,7c7.8,7.7,15.5,15.4,23.2,23.2
	c6.6,6.7,13.5,13.3,19.4,20.6c3.1,3.9,3.7,9.6,6.5,13.8c10.4,15.6,21.2,30.9,32,46.2c1,1.4,2.8,2.2,4.3,3.3c0.3-0.4,0.5-0.8,0.8-1.1
	c-2-3-4.4-5.8-6.1-8.9c-3.5-6.4-8-12.5-4-20.8c1.7-3.5,0.7-7.9-3-11.3c-6.9-6.3-13.3-13.1-19.9-19.7c-13-12.5-26-25.3-38.9-38.3
	C64,65.4,55.2,55.9,46,46.7c-2.3-2.4-5.5-3.9-8.2-5.9c1.4-0.7,2.9-2.1,4.3-2.1c15-0.1,30,0.1,45,0c43.8,0,87.6-0.2,131.5-0.2
	c32.7,0,65.3,0.1,98,0.2c0.8,0,1.7,0.1,2.5,0.2c0.8,5,2.5,9.4,7.3,12.2c4,2.4,5,7,3,11.9c-0.7,1.8-1.8,3.6-2.6,5.4
	c-2.1,4.9-1,11.3,2.3,14.4c4.4,4.3,8.9,8.5,13.2,12.9c2.7,2.7,6.3,4.9,3.5,10.8c5.4-4.6,6.8-8.5,1.5-13.5c1.9,0.3,2.4,0.5,2.8,0.5
	c1.5,0.1,2.9,0.1,4.4,0.1c-0.7-1.5-1.1-3.2-2.1-4.4c-1.3-1.5-3.2-2.6-5-4c-2.8,3.1-4.7,3.2-7.6-1.1c-4.3-6.4-4.6-12.3-0.9-19
	c1.3-0.1,3,0.3,4.1-0.4c1.5-0.9,3.8-2.8,3.7-4c-0.8-7.6-3.1-14.6-10.4-18.7C335,41.4,334.1,40,333,38.9z M400.8,115.8
	c-0.3-0.3-0.6-0.5-0.9-0.8c-1.2,1-2.4,2-3.4,3.1c-10.4,10.4-20.8,20.9-31.3,31.3c-3.5,3.5-7.5,6.6-10.8,10.3
	c-5.3,5.9-10.5,11.9-15.4,18.2c-1.5,1.9-2.4,4.5-2.8,7c-0.5,2.4-0.3,5,0,7.5c0.3,3.6-1.1,5.8-4,7.9C316.4,212.1,300.7,224,285,236
	c-1.2,0.9-2.8,2.8-2.6,3.9c1.3,6.2-2.8,9.5-6.5,12.8c-1.1,0.9-3.7,1.4-4.8,0.8c-5.1-3.1-7.9,0.6-10.6,3.4c-2.4,2.5-1.7,5.8,1.3,7.1
	c3.3,1.4,7.1,1.6,10.7,2.3c1.6,0.3,3.2,0.6,4.8,1c1.4,0.3,2.8,0.5,5.2,1c-2.3-3.4-3.9-5.8-5.5-8.3c11.1-4.2,21.7-2.6,32.8-1.7
	c4.5-6.6,9.6-13.7,14.3-21.1c7.7-12.1,15.4-24,26-33.8c6.1-5.7,11.6-12.5,15.6-19.8c10-18.2,19-37.1,28.5-55.6
	C396.2,123.6,398.6,119.7,400.8,115.8z M458.2,276.3c0.4-2.7,1.3-5.3,0.8-5.5c-4.8-2.8-9.7-5.5-14.8-7.7c-3-1.3-6.4-1.4-9.5-2.3
	c-3.6-1-6.9-1.6-10.2,1.2c-10.1,8.5-21.4,13.5-35.1,12.1c-8.5-0.9-16.6-1.2-22-9.8c-2.8-4.3-7.7-6.8-14.1-6.5
	c-9.9,0.5-19.9-0.4-29.8-0.7c-1,0-2,0.4-2.9,0.6c10.9,7.5,17.1,20.8,31.3,23.2c-2.2-2.3-4.9-4.1-7.4-6.1c-2.3-1.8-3.7-4.4-1.4-6.7
	c0.8-0.8,4.6,0.1,5.7,1.3c4.9,5.7,11.5,9.2,17.5,13.2c1.1,0.7,2.9,0.3,4.9,0.5c-0.9-2.3-1.4-3.4-1.8-4.5c0.4-0.3,0.9-0.6,1.3-0.9
	c2.8,3.5,5.7,6.9,8.3,10.5c2.5,3.6,5.7,4,9.6,2c6.1-3.2,12.8-3.4,19.4-1.3c0.8,0.3,1.8,0.7,2.6,0.5c4.2-1.1,8.4-2.5,12.6-3.6
	c4-1,8-1.7,12-2.6c4.6-1,9.2-2.8,13.9-3.1c5.5-0.4,11,0.5,17.9,0.8C463,278.9,460.1,277.3,458.2,276.3z M254.8,261.1
	c-0.4,0.7-1.2,2.1-1.9,3.5c-0.6-0.2-1.3-0.5-1.9-0.7c-0.6-2.4-2-4.9-1.8-7.2c0.9-10.5-4-17.7-12.2-23.9c-0.7,1.2-1.5,1.9-1.7,2.8
	c-1.2,5.6,1.8,12.6-5.2,16.4c-0.3,9.1-0.8,18.2-0.9,27.3c0,1.1,1.4,2.7,2.6,3.2c0.6,0.3,2.1-1,3.2-1.5c1.3-0.6,3.1-1.8,4-1.4
	c1.3,0.7,2.3,2.4,3,3.9c0.8,1.7,1,3.8,1.9,5.5c1.5,3.2,3.7,6,4.8,9.3c2.1,6.6,4.9,12.8,10.8,16.7c2.2,1.5,5.4,1.6,8.2,2.3
	c0.4-2.3,1.5-4.7,1.1-6.9c-1.1-6.8-3-13.5-4.2-20.3c-0.3-1.8,0.5-4.5,1.8-5.6c1.2-1,3.7-0.5,5.7-0.5c1.3,0,2.5,0.3,4.5,0.6
	c-1.9-5.7-5.9-5.3-9.6-5.9c-2.2-0.4-5.1-1.3-6-2.9C258.3,271.4,256.7,266.2,254.8,261.1z M152.7,165.2c-2-0.4-3.4-0.7-4.8-1
	c-2.6-0.4-3.8,1.1-2.5,3.1c1.4,2.2,3.5,4.9,5.8,5.6c10.6,2.8,17.4,10.5,24.4,18c1.5,1.6,2.2,4.5,2.3,6.8c0.3,8,0.1,16,0.2,24
	c0,1.6,0.1,3.5,0.9,4.7c5.4,8.5,8.1,18,10.7,27.6c0.8,3.1,3.2,5.9,5.3,8.5c2.6,3.1,4.9,1.4,5.8-1.6c0.7-2.2,0.6-4.8,0.4-7.2
	c-0.7-7.6-0.6-15.5-2.7-22.8c-2.6-9.3-9-18-9.9-27.3c-1-10.3-4.7-20.8-1.2-31.5c0.3-1-1.1-2.5-1.7-3.8c-1.3,0.7-3.2,1.1-3.7,2.1
	c-1.3,2.7-1.9,5.8-3.2,9.9c-8.6-8.4-16.6-16.3-25.5-25C153,159.4,152.9,162,152.7,165.2z M114.4,167.5c0.3-0.3,0.6-0.6,0.9-0.9
	c-7.1-10.6-13.7-21.5-24.8-28.7c-5.9-3.8-8.3-3.7-12.5,1.9c-2.8,3.7-5,8.4-5.8,12.9c-1.7,9.6-2.4,19.3-3.1,29.1
	c-0.1,1.9,1.3,5.2,2.6,5.5c4.7,1,9.6,1.1,14.5,1.4c0.5,0,1.5-1.1,1.5-1.7c1.2-9.9,7.8-16.9,12.9-24.8c1.6-2.4,2.7-2.5,4.6-1.2
	C108.4,163.1,111.4,165.3,114.4,167.5z M334.4,145.5c-2.3,2.2-4.7,3.8-6.2,6.1c-1,1.4-1.7,4-1.2,5.5c2.1,5.6,4.7,11,7.1,16.5
	C341.4,166.9,341.7,155.6,334.4,145.5z M238.5,167.5c-2.2-1.4-4.4-3.3-7-4.3c-3.9-1.6-5-4.1-4.6-8c0.2-1.6-0.7-3.3-1.1-4.9
	c-3,7.3-6.8,14.5,0,21c1.8,1.7,4.5,4.1,6.5,3.8C235.8,174.6,239.2,172.5,238.5,167.5z M280.1,146.1c7.7,10.7,14.6,20.2,22,30.4
	C304.4,164.1,293.3,149.4,280.1,146.1z M325.2,125.7c-0.8,0.2-1.6,0.4-2.4,0.6c-0.3,1.7-0.5,3.4-0.8,5c-0.5,2.6-0.7,5.3-1.6,7.6
	c-2.1,5.2-1.4,7.6,4.9,11.3c2.2-3.7,6.3-7.6,6.1-11.2C331.2,134.6,327.4,130.2,325.2,125.7z M438.4,332.6c-1.4-3.5-3.4-6.5-8.6-4.4
	c-1,0.4-2.8-1.1-3.8-0.8c-2.4,0.9-5,2-6.6,3.8c-0.7,0.8,0.7,5.2,1.4,5.3c4,0.2,8.1-0.1,12.1-0.7
	C434.7,335.4,436.3,333.9,438.4,332.6z M395.8,335.5c1.7,5.4,6.5,6.8,10,9.3c1,0.7,2.9,0,4.4-0.1c-0.1-1.6,0.4-3.8-0.5-4.8
	c-2.5-2.9-5.6-5.3-8.5-7.9c-0.2,0.9-0.4,2.1-0.6,3.4C399.2,335.5,397.8,335.5,395.8,335.5z M250.2,243.6c3.3-10.4-3.7-15.7-8.8-22.8
	C239.6,230.9,248.2,235.5,250.2,243.6z M110.9,180.1c-0.1,0.6-0.1,1.2-0.2,1.7c3.7,2.8,7.4,5.7,11.9,9.2c0.6-7.2-3.8-9.6-7.2-12.4
	C114.9,178,112.5,179.5,110.9,180.1z M273.2,319.3c-0.6,0.5-1.2,1-1.8,1.5c0.8,2.6,1.1,5.5,2.5,7.7c0.4,0.6,3.9-0.2,5.7-1.1
	c0.8-0.4,1.3-3.4,0.9-3.7C278.3,322,275.7,320.8,273.2,319.3z M212.6,130.3c0.2-0.3,0.3-0.6,0.5-0.8c-1.4-4-2.7-7.9-4.6-13.4
	c-1.6,2.5-4.4,5.6-3.8,6.4C206.7,125.5,209.8,127.8,212.6,130.3z M316.5,190.1c-0.8-1.1-1.8-2.5-2.8-4c-0.9,1.5-1.9,2.9-2.8,4.4
	c-0.5,0.9-0.8,1.9-0.8,2.8c0.1,1.2,0.7,2.3,1.1,3.4c1.3-0.5,3-0.7,3.8-1.6C315.9,194.1,315.9,192.4,316.5,190.1z M428.9,348.8
	c-5.7,1-6.3,3.5-5.7,6.5c0.1,0.7,1.9,1,2.9,1.5C426.9,354.5,427.7,352.2,428.9,348.8z M412.7,339.5c2.3-3.5,0.7-6.3-0.9-8.6
	c-0.5-0.7-2.9-0.1-4-0.1C409.7,334.2,411,336.5,412.7,339.5z M441.5,344c0.4-0.4,0.8-0.7,1.1-1.1c-2-2.1-4.1-4.2-6.5-6.8
	C432.9,343.7,439.1,342.2,441.5,344z M432.9,352.3c0.1,0.9,0.3,1.9,0.4,2.8c1.8-0.3,3.6-0.5,5.4-0.8c-0.4-1-0.7-2.8-1.1-2.8
	C436,351.5,434.5,352,432.9,352.3z M102.2,195.5c-0.6-0.6-1.2-1.3-1.8-1.9c-1.4,1.5-2.9,2.9-4.2,4.5c-0.2,0.2,0.7,1.2,1.1,1.8
	C99,198.4,100.6,196.9,102.2,195.5z M357.9,242.8c0.6,0.4,1.1,0.7,1.7,1.1c0.8-1.3,1.5-2.6,2.3-3.9c-0.4-0.3-0.9-0.5-1.3-0.8
	C359.7,240.3,358.8,241.6,357.9,242.8z M440.9,356.8c-0.5,0-1,0-1.4,0.1c0,1.2,0,2.4,0,3.6c0.4,0,0.7,0,1.1,0.1
	C440.7,359.3,440.8,358.1,440.9,356.8z M428.3,362.5c0.5,0,1,0,1.5,0c-0.1-1-0.1-2-0.2-3c-0.4,0-0.8,0-1.1,0
	C428.4,360.5,428.3,361.5,428.3,362.5z M429.9,374.3c0.8-1,1.4-1.4,1.7-2.1c0.1-0.1-0.8-1-1.2-1c-0.5,0-1.1,0.6-1.2,1.1
	C429.1,372.7,429.5,373.3,429.9,374.3z M415.2,259.9c0.3,0.3,0.6,0.6,0.9,0.9c0.6-0.6,1.1-1.2,1.7-1.8c-0.2-0.2-0.4-0.4-0.6-0.7
	C416.5,258.8,415.8,259.4,415.2,259.9z M369.1,255.2c-0.4,0.5-0.8,0.8-0.8,1.1c0,0.4,0.3,0.8,0.5,1.2c0.4-0.3,0.9-0.6,1.1-1.1
	C369.9,256.2,369.4,255.8,369.1,255.2z M138.7,235.1c-0.2-0.3-0.4-0.7-0.6-0.7c-0.2,0-0.5,0.2-0.7,0.3c0.2,0.3,0.4,0.6,0.7,0.8
	C138.1,235.6,138.5,235.3,138.7,235.1z M240.4,219.4c0.1-0.3,0.1-0.5,0.2-0.7c-0.1,0-0.3,0.1-0.3,0.1
	C240.3,219,240.3,219.1,240.4,219.4z"/>
<path class="st0" d="M37.9,208c6.1-0.9,6,4.1,6,7.4c-0.1,7.1,3.7,12.7,6.4,18.6c3,6.5,6.8,6.3,11.9,1.1c1.7-1.8,4.9-2.9,7.4-2.9
	c5.9,0,11.7,1,17.6,1.4c2.5,0.2,5-0.1,7.7-1.1c-4.9-4.5-12.7-3.8-16.2-11.9c2.5,0.1,4.4,0.1,6.2,0.4c5.7,1,11.3,2.2,17.1,3.1
	c3.4,0.5,5.6-0.8,6.2-4.7c0.3-1.9,2.1-3.6,3.3-5.3c0.6,0.4,1.2,0.7,1.9,1.1c-1,2.2-2,4.3-3.4,7.2c1.9,0.9,3.9,2.5,5.9,2.6
	c7.1,0.4,11.8,3.8,14.4,10.3c0.1,0.2,0.1,0.3,0.2,0.4c6,7,12,13.9,18.9,20.5c-3.5-6-7-12-10.5-18c0.3-0.2,0.5-0.4,0.8-0.6
	c8.1,7.2,16.2,14.5,24.9,22.3c-3.4,5.7-8.7,11.3-14.9,16c-5.2,3.9-10.8,7.2-15.8,11.3c-5.2,4.2-10.2,4.2-16.1,1.6
	c-4.1-1.8-8.8-2.5-13.3-3.6c-4.6-1.1-9.3-2.2-14-3.3c-1-0.2-2-0.2-3.5,0.8c11.7,7.7,23.4,15.4,36.1,23.8c2.1-2.4,4.4-5.2,6.9-7.8
	c4.1-4.3,8-9,12.8-12.4c9.6-7.1,18-15.3,24.6-25.2c2.3-3.5,5.5-3.2,8.3-2.4c1.3,0.4,2.2,3.7,2.2,5.6c0.2,17.2,0.1,34.3,0.1,51.5
	c0,2,0,3.9,0,6.6c3-0.3,5.2-0.6,7.4-0.8c9-0.8,17.7-2.1,21.8-11.9c0.2-0.5,1-0.8,1.6-1.1c0.3-0.1,0.6-0.1,2.2-0.2
	c0,3.7-0.1,7.4,0,11c0.5,10.5,1.7,21,8.9,29.4c3.7,4.3,8.1,8.3,12.9,11.5c4.6,3.1,7.9-0.7,10.5-3.4c-2.6-5.5-5.1-10.5-7.4-15.5
	c-0.4-0.9-0.5-2.5,0-3.1c3.5-3.9,7.2-7.6,10.2-10.8c3.5,0.3,6.6,0.6,9.7,0.9c2.5,2,5.5,4,7.8,6.6c1.4,1.5,2,4,2.2,6.1
	c0.4,3.5-0.5,7.1,3.4,9.7c1.5,1,1.2,4.6,1.7,6.9c0.4,1.8,1,3.5,1.4,5.2c12.7-1,21.9-10.4,22.5-22.8c0.1-1.7-0.2-3.4,0.1-5
	c0.3-1.5,0.9-3.1,2-4c0.5-0.4,2.3,0.9,3.6,1.4c3.1-4.6,3.5-13.2-1.3-18.4c-5.4-5.9-9.8-12.8-15.2-20c8-1.9,14.8-3.8,21.5,1.4
	c5.2,4.1,10.6,8,15.8,12c1.1,0.8,1.8,2.2,3.8,4.6c-7.2,0-13,0-19.7,0c2.8,4.8,5.8,6.5,9.9,6.2c11.3-0.9,12.4,1.4,12.4,12.9
	c0,7.5,0,14.9,0.7,22.8c2-5.3,4-10.6,6.2-16.3c2.8,2.8,5.7,5.7,10.4,3.9c0.8-0.3,2.7,1.2,3.5,2.3c6.6,8.5,16.4,12.2,25.5,17
	c0.7,0.4,1.6,0.6,2.4,0.5c9.9-1.7,15.3,5.1,20.8,11.3c8.4,9.4,16.6,19,24.8,28.5c11.3,13,22.7,25.9,33.8,39.1c3,3.6,5,2.8,8.2,0.5
	s7.2-3.7,10.8-5.5c0.1,12.8,0.2,25.6,0.1,38.3c0,0.9-1.4,1.8-2.2,2.7c-1.1-1.6-2-3.4-3.3-4.8c-10.8-11.3-21.7-22.5-32.8-34
	c3.9-2,2.5-4.4,0.7-6.6c-4.7-5.7-9.7-11.1-14.1-17c-7.8-10.5-14.7-21.6-22.9-31.7c-3.1-3.8-8.3-8-12.7-8.1
	c-5.1-0.1-9.3-0.6-13.3-3.5c-3.9-2.8-7.9-5.3-11.8-8c-0.3,0.3-0.5,0.7-0.8,1c20.4,20.5,40.7,41,61.6,62c-4.9-0.8-8.9-2.5-12.4-1.9
	c-4.1,0.7-7.4,0.2-10.9-1.7c-9-4.9-17.9-10-27.2-14.5c-4.4-2.2-9.4-3.2-14.1-4.7c-0.5,0.5-1,1.1-1.5,1.6c0.9,2.8,1.6,5.7,2.8,8.4
	c4.3,9.4,6.3,8.8-4,14.1c-4.5,2.3-10.1,2.1-13-0.8c-3-3-3.3-8.4-0.4-12.9c2.8-4.4,2.9-8.5-0.8-12.2c-8.1-8-16.4-15.9-24.8-23.6
	c-1-0.9-3.1-0.5-4.7-0.7c0.8,1.4,1.3,3,2.3,4.1c4.7,4.7,9.8,8.9,14.1,13.9c3.7,4.3,2.2,9.8-2.6,12.5c-3.3,1.8-5,4.3-4.5,8.1
	c0.4,2.9,0.8,5.9,1.4,8.8c1.1,5.6,3.5,11.3,3.3,16.9c-0.2,6.8-2.1,13.7-4.2,20.2c-1.7,5.4-4.9,10.3-7.4,15.4c-2.3,0-4.7,0-7,0
	c0.2-2.5-0.4-5.3,0.6-7.4c5.2-10.9,2.4-22.1,0.5-32.7c-2.5-13.7-7.2-27-7.2-41.2c0-1.9-0.8-4.3-2.1-5.7c-2.9-3.2-5.8-2.3-10.5,2.9
	c0.5,1.5,1.2,3.1,1.6,4.7c1.3,5.6,2.6,11.2,3.7,16.8c0.7,3.4,1.4,6.9,1.3,10.4c-0.3,5.7-1.8,11.4-1.8,17.1c0,8.1-0.3,15.8-4.5,23.1
	c-2.1,3.7-3.1,8-4.6,12c-20.3,0-40.7,0-61,0c-0.3-1.4-0.3-3.2-1.1-4.2c-7.1-8.9-7.4-19.2-7-29.8c0.1-2.3-0.9-5-2.3-6.8
	C208,428.5,202,422,196,415.6c-3.2-3.4-4.1-6.9-1.3-10.7c2.3-3.2,4.9-6.2,7.7-8.9c3.4-3.3,7.1-6.3,10.6-9.5
	c-6.5-8.8-8.4-8.8-14.8-1.3c-3.4,4-7.1,8-12.9,9.2c4-6.8,8-13.7,12.3-21c-3-3.9-6.4-8.3-9.4-12.1c-7.9,6.3-15.2,12.1-22.5,18.1
	c-3.4,2.8-5.5,1.6-6.9-1.8c-1.8-4.7-5.6-5.4-9.4-4.2c-3.4,1.2-6.5,3.7-9.5,5.9c-5.7,4.2-9.4,10.6-17,13c-4.3,1.3-7.6,6-10.9,9.6
	c-0.6,0.7,0.5,3,0.8,4.6c0.1,0.4-0.1,1.1-0.4,1.4c-5.4,6.1-3.3,13.9-5.2,22.5c2.6-2,4.3-2.9,5.4-4.3c11.1-14,24.8-24.7,41.2-31.8
	c1-0.4,2.2-0.5,3.2-0.5c4.2,0.2,8.4,0.6,12.6,1c1.6,0.2,3.3,0.5,4.9,0.8c-0.5,1.6-0.6,3.7-1.7,4.7c-7.6,6.6-14.8,14.1-23.4,19.2
	c-11.8,6.9-23.8,13.3-34.3,22.1c-2.8,2.4-3.6,4.4-0.9,7.4c4.6,5,10.6,5.2,16.5,4.7c4.7-0.4,9.2-2.3,13.8-3.3c3.6-0.8,7.4-2.3,11-1.8
	c4.8,0.6,10.1,1.8,14.1,4.3c3.9,2.5,6.6,7,9.6,10.8c2.9,3.6,0.4,6.9-0.9,10.2c-0.3,0.7-0.2,1.6-0.3,2.5c-8.3,0.1-16.6,0.3-25,0.3
	c-36.7,0-73.3,0-110-0.1c-1.6,0-3.2-0.1-5.2-0.2c0-19.2,0-38.2,0-57.1c3.2,0,6.4-0.2,9.5,0.1c5.4,0.5,9.8-0.8,13.3-5.1
	c1.2-1.4,3.3-2.2,5.1-2.9c3.1-1.3,6.6-2,9.6-3.5c4.6-2.3,10.4-4.2,12.9-8c4.5-6.7,10-11.8,16.4-16.3c1.1-0.7,1.4-2.4,2.1-3.7
	c-8,2.7-14.3,8.8-24.2,6.8c1.9-5.7,2-11.8,7-15.8c6-4.9,7.7-9.8,4.8-15.3c6.4-7.1,7.4-15.5,5.6-24.6c-0.8-4-1-8.3-2.6-12
	c-1.6-3.8-3.6-8.8-6.8-10.3c-9.1-4.2-19.6,5.5-17.5,15.6c0.9,4.4,1.4,8.5,0.1,13.1c-1.9,6.1-0.2,8.4,5.8,11.1
	c0.8,0.4,1.9,1.8,1.7,2.1c-1.5,2.1-3,4.4-5,6c-0.7,0.5-3-0.3-4.1-1.2c-3.3-2.4-6.8-1.3-7.6,2.7c-0.3,1.2-0.3,2.5-0.7,5
	c-4.2-2.3-7.9-4-11.3-6.2c-4.4-2.9-10.8-3.8-14.4-1.6c0-3,0-6,0.1-9c3.5-2,5.8-4.8,7.7-8.6c5.8-11.5,5.7-22.1-2.9-32
	c-1.2-1.4-3.1-2.2-4.6-3.3C37.9,270.7,37.9,239.4,37.9,208z M272.8,416.7c-0.3,0.1-0.5,0.2-0.8,0.2c0,1,0,2,0,3
	c-0.3,6.3-4.7,11.8-9.7,12.2c-5.1,0.4-7.5-2.3-9.6-9.8c-1.6-5.7-3.6-11.2-8.3-15.6c-2.7-2.5-3.7-6.8-5.5-10.2
	c-0.6-1.2-1.4-3-2.3-3.2c-2.6-0.5-6.2-1.3-7.9,0c-4.8,3.6-4.7,14.5-0.8,19.3c3.1,3.8,5.8,8,8.5,12.1c4.3,6.6,7.9,13.7,12.9,19.8
	c4.4,5.4,13.6,5.2,19.3,0.9c0.9-0.7,2.2-0.7,3.1-1.3c1.9-1.6,4.3-3,5.3-5.1c1.6-3.4,1.5-7.6,3.3-10.9c6.4-11.4,0.1-21.1-4.2-30.9
	c-0.7-1.5-5.8-2.3-8.3-1.6c-3.3,1-0.2,3.3,0.4,5.1C269.7,406,271.2,411.3,272.8,416.7z M123.3,345.7c4.6-2.3,7.8-4.8,6.5-10.2
	c-0.2-0.9,0-2,0.4-2.8c5.7-11.4,10.5-23.4,21-31.7c1.6-1.3,2.1-4,3.6-7.1C137.7,301.2,122,327.4,123.3,345.7z"/>
<path class="st1" d="M178,476.1c0.1-0.8,0-1.7,0.3-2.5c1.3-3.3,3.8-6.6,0.9-10.2c-3-3.8-5.7-8.3-9.6-10.8c-4-2.6-9.2-3.8-14.1-4.3
	c-3.5-0.4-7.3,1-11,1.8c-4.6,1-9.2,2.9-13.8,3.3c-5.9,0.5-11.9,0.3-16.5-4.7c-2.7-3-1.9-5,0.9-7.4c10.5-8.9,22.5-15.2,34.3-22.1
	c8.6-5,15.8-12.5,23.4-19.2c1.1-0.9,1.1-3.1,1.7-4.7c-1.6-0.3-3.3-0.7-4.9-0.8c-4.2-0.4-8.4-0.7-12.6-1c-1.1-0.1-2.3,0-3.2,0.5
	c-16.4,7.2-30.1,17.8-41.2,31.8c-1.1,1.4-2.8,2.3-5.4,4.3c1.9-8.6-0.2-16.4,5.2-22.5c0.3-0.3,0.4-1,0.4-1.4
	c-0.2-1.6-1.4-3.9-0.8-4.6c3.4-3.5,6.7-8.2,10.9-9.6c7.6-2.4,11.3-8.8,17-13c3-2.2,6.1-4.8,9.5-5.9c3.7-1.3,7.5-0.5,9.4,4.2
	c1.3,3.4,3.5,4.6,6.9,1.8c7.2-6,14.6-11.8,22.5-18.1c3,3.9,6.4,8.2,9.4,12.1c-4.3,7.3-8.3,14.1-12.3,21c5.8-1.2,9.5-5.1,12.9-9.2
	c6.4-7.5,8.3-7.5,14.8,1.3c-3.5,3.1-7.2,6.1-10.6,9.5c-2.8,2.8-5.4,5.8-7.7,8.9c-2.8,3.8-1.8,7.4,1.3,10.7
	c6,6.4,11.9,12.9,17.6,19.7c1.5,1.7,2.4,4.5,2.3,6.8c-0.5,10.6-0.1,20.9,7,29.8c0.8,1,0.8,2.8,1.1,4.2
	C208.7,476.1,193.3,476.1,178,476.1z M184.3,396.5c-0.1-0.1-0.1-0.3-0.2-0.3c-0.1,0-0.3,0-0.4,0c0.1,0.2,0.2,0.3,0.3,0.5
	C184.1,396.7,184.2,396.6,184.3,396.5z"/>
<path class="st1" d="M315,476.1c2.5-5.1,5.7-10,7.4-15.4c2.1-6.5,4-13.4,4.2-20.2c0.2-5.6-2.2-11.2-3.3-16.9
	c-0.6-2.9-0.9-5.9-1.4-8.8c-0.5-3.8,1.2-6.2,4.5-8.1c4.8-2.7,6.2-8.2,2.6-12.5c-4.3-5-9.5-9.2-14.1-13.9c-1.1-1.1-1.6-2.7-2.3-4.1
	c1.6,0.2,3.7-0.2,4.7,0.7c8.4,7.7,16.6,15.6,24.8,23.6c3.7,3.7,3.6,7.8,0.8,12.2c-2.9,4.5-2.5,9.9,0.4,12.9c2.9,2.9,8.5,3,13,0.8
	c10.4-5.2,8.4-4.6,4-14.1c-1.2-2.7-1.9-5.6-2.8-8.4c0.5-0.5,1-1.1,1.5-1.6c4.7,1.5,9.7,2.6,14.1,4.7c9.2,4.5,18.1,9.6,27.2,14.5
	c3.5,1.9,6.8,2.4,10.9,1.7c3.6-0.6,7.5,1,12.4,1.9c-20.9-21-41.2-41.5-61.6-62c0.3-0.3,0.5-0.7,0.8-1c4,2.7,8,5.2,11.8,8
	c4.1,2.9,8.2,3.4,13.3,3.5c4.4,0.1,9.6,4.3,12.7,8.1c8.1,10.2,15.1,21.3,22.9,31.7c4.4,5.9,9.4,11.3,14.1,17
	c1.8,2.2,3.3,4.6-0.7,6.6c11.1,11.5,22,22.7,32.8,34c1.3,1.4,2.2,3.2,3.3,4.8c-6.7,0-13.4,0.1-20,0.1c0.4-1.8,0.3-3.9,1.2-5.3
	c3.2-4.6,0.7-8.7-1.6-11.9c-6-8.5-12.5-16.7-21.9-21.7c-2.9-1.5-6.3-2.9-9.6-3c-5.8-0.1-11.3-0.4-16.2-3.8c-3.3-2.3-6.5-4.5-9.8-6.8
	c-6-4.2-11.9-8.5-19.7-8.6c-5.4-0.1-6.7,1.7-4.5,6.6c1.5,3.4,1.3,6-1.5,8.5c-0.7,0.6-1.1,1.6-1.5,2.5c-3.4,7.2-7,14.3-9.9,21.7
	c-0.8,1.9,0,5,1,7.1c2.4,5,5.3,9.8,7.9,14.7c-5.7,0-11.4,0-17,0.1c-1.9-1.7-3.6-4.6-5.7-4.8c-5.3-0.7-10.9-0.6-14.3,4.9
	C325,476.2,320,476.2,315,476.1z"/>
<path class="st1" d="M37.8,354.9c3.5-2.2,10-1.2,14.4,1.6c3.4,2.2,7.1,3.9,11.3,6.2c0.3-2.5,0.4-3.7,0.7-5c0.9-4,4.4-5.1,7.6-2.7
	c1.1,0.8,3.5,1.7,4.1,1.2c2-1.6,3.5-3.8,5-6c0.1-0.2-1-1.7-1.7-2.1c-6-2.7-7.6-5-5.8-11.1c1.4-4.6,0.8-8.7-0.1-13.1
	c-2.1-10.1,8.4-19.8,17.5-15.6c3.2,1.5,5.3,6.5,6.8,10.3c1.5,3.7,1.7,8,2.6,12c1.8,9,0.8,17.4-5.6,24.6c2.8,5.5,1.2,10.4-4.8,15.3
	c-5,4-5.1,10.1-7,15.8c9.9,2,16.1-4.1,24.2-6.8c-0.7,1.3-1.1,3-2.1,3.7c-6.4,4.5-11.9,9.6-16.4,16.3c-2.6,3.9-8.4,5.7-12.9,8
	c-3,1.5-6.4,2.2-9.6,3.5c-1.8,0.7-3.9,1.5-5.1,2.9c-3.6,4.3-8,5.6-13.3,5.1c-3.1-0.3-6.3-0.1-9.5-0.1
	C37.9,397.6,37.8,376.3,37.8,354.9z M88.9,337.7c-0.6-0.1-1.2-0.3-1.8-0.4c-0.3,1-0.6,2-0.7,3c0,0.1,1.1,0.4,1.6,0.6
	C88.3,339.7,88.6,338.7,88.9,337.7z M42.8,374c-0.3-0.3-0.6-0.6-0.9-0.9c-0.5,0.7-1.1,1.3-1.6,2c0.2,0.2,0.4,0.4,0.7,0.6
	C41.6,375.2,42.2,374.6,42.8,374z M92.9,315.7c0.3-0.1,0.7-0.2,0.7-0.4c0.1-0.2-0.1-0.5-0.2-0.8c-0.3,0.2-0.6,0.3-1,0.5
	C92.6,315.2,92.7,315.4,92.9,315.7z"/>
<path class="st2" d="M367,476c-2.7-4.9-5.6-9.6-7.9-14.7c-1-2.1-1.8-5.1-1-7.1c2.9-7.4,6.5-14.5,9.9-21.7c0.4-0.9,0.8-1.9,1.5-2.5
	c2.8-2.5,3-5.1,1.5-8.5c-2.2-5-0.9-6.7,4.5-6.6c7.7,0.1,13.7,4.4,19.7,8.6c3.2,2.3,6.5,4.5,9.8,6.8c4.9,3.4,10.4,3.7,16.2,3.8
	c3.2,0.1,6.6,1.4,9.6,3c9.4,5,15.9,13.2,21.9,21.7c2.3,3.3,4.8,7.3,1.6,11.9c-0.9,1.4-0.8,3.5-1.2,5.3c-17.9,0.1-35.8,0.3-53.7,0.3
	C388.6,476.4,377.8,476.2,367,476z"/>
<path class="st2" d="M37.8,40.8c2.8,1.9,5.9,3.5,8.2,5.9c9.2,9.2,18,18.7,27.1,27.9c12.8,13,25.8,25.8,38.7,38.8
	c6.6,6.6,13,13.4,19.9,19.7c3.7,3.4,4.7,7.8,3,11.3c-4,8.3,0.5,14.4,4,20.8c1.7,3.1,4,5.9,6.1,8.9c-0.3,0.4-0.5,0.8-0.8,1.1
	c-1.5-1.1-3.3-1.9-4.3-3.3c-10.8-15.3-21.6-30.6-32-46.2c-2.8-4.2-3.4-10-6.5-13.8c-5.9-7.3-12.8-13.9-19.4-20.6
	C74.1,83.5,66.3,75.7,58.6,68c-2.5-2.5-4.9-5-7.7-7c-1.6-1.2-4.8-2.5-5.7-1.8c-1.9,1.6-3.9,4.4-4,6.8c-0.2,5.6,0.4,11.3,1.4,16.8
	c1.1,6,3.2,11.8,4.7,17.7c2.3,9.1-0.2,12.3-9.4,12.4c-0.1-18.4-0.2-36.8-0.3-55.3C37.6,52.1,37.7,46.5,37.8,40.8z"/>
<path class="st1" d="M285,476.1c1.5-4,2.5-8.4,4.6-12c4.2-7.3,4.5-15,4.5-23.1c0-5.7,1.5-11.4,1.8-17.1c0.2-3.4-0.6-6.9-1.3-10.4
	c-1.1-5.6-2.4-11.2-3.7-16.8c-0.4-1.6-1.1-3.1-1.6-4.7c4.7-5.2,7.6-6.1,10.5-2.9c1.3,1.4,2.1,3.8,2.1,5.7c0,14.2,4.7,27.5,7.2,41.2
	c1.9,10.6,4.7,21.8-0.5,32.7c-1,2.1-0.4,4.9-0.6,7.4C300.3,476.1,292.7,476.1,285,476.1z"/>
<path class="st2" d="M333,38.9c1.1,1.1,2,2.5,3.3,3.3c7.3,4.1,9.6,11.1,10.4,18.7c0.1,1.3-2.1,3.1-3.7,4c-1.1,0.7-2.9,0.3-4.1,0.4
	c-3.7,6.8-3.4,12.6,0.9,19c2.9,4.3,4.8,4.2,7.6,1.1c1.8,1.4,3.7,2.5,5,4c1,1.2,1.4,2.9,2.1,4.4c-1.5,0-2.9,0-4.4-0.1
	c-0.5,0-0.9-0.2-2.8-0.5c5.3,5,3.8,8.9-1.5,13.5c2.8-5.9-0.8-8.2-3.5-10.8c-4.4-4.3-8.8-8.6-13.2-12.9c-3.3-3.2-4.3-9.5-2.3-14.4
	c0.8-1.8,1.8-3.5,2.6-5.4c1.9-4.9,1-9.5-3-11.9c-4.8-2.8-6.5-7.2-7.3-12.2C323.7,39,328.3,38.9,333,38.9z"/>
<path class="st2" d="M475.1,265.1c-7.4-3.9-15.2-7.3-22.1-11.9s-20.4-4.3-28.6,1.9c-1.5,1.1-3.1,1.9-4.6,2.9
	c-0.4-0.6-0.8-1.2-1.2-1.8c4.6-3,9-6.4,13.9-9c13.4-7.1,28-7.4,42.7-7.3C475.1,248.3,475.1,256.7,475.1,265.1z"/>
<path class="st2" d="M475.1,54.1c-2.5-0.3-6.3-1.7-7.1-0.7c-3.1,3.8-5.8,8.3-7.7,12.9c-1.2,2.9-1.2,6.5-1.2,9.8
	c-0.1,3.7-2.4,5.1-5.3,5.3c-0.9,0-2.1-2.4-2.8-3.9c-2.1-4.3-5.8-2-8.8-2.2c-1.1-0.1-2.2,1-4.7,2.2c1.4-2.1,1.9-3.1,2.6-3.8
	c10.4-10.5,20.9-20.9,31.4-31.3c1-1,2.5-1.5,3.7-2.3C475.1,44.6,475.1,49.3,475.1,54.1z"/>
<path class="st1" d="M37.9,302c1.6,1.1,3.4,1.9,4.6,3.3c8.6,9.9,8.8,20.5,2.9,32c-1.9,3.7-4.2,6.5-7.7,8.6
	C37.9,331.3,37.9,316.6,37.9,302z"/>
<path class="st2" d="M330,476.2c3.4-5.5,9-5.6,14.3-4.9c2.1,0.3,3.8,3.1,5.7,4.8C343.3,476.1,336.7,476.2,330,476.2z"/>
<path class="st2" d="M400.8,115.8c-2.2,4-4.6,7.9-6.6,11.9c-9.5,18.6-18.5,37.4-28.5,55.6c-4,7.3-9.5,14.2-15.6,19.8
	c-10.7,9.9-18.4,21.8-26,33.8c-4.7,7.4-9.8,14.5-14.3,21.1c-11.1-0.9-21.7-2.5-32.8,1.7c1.7,2.5,3.2,4.8,5.5,8.3
	c-2.4-0.4-3.8-0.7-5.2-1c-1.6-0.3-3.2-0.6-4.8-1c-3.6-0.7-7.4-0.9-10.7-2.3c-3-1.3-3.7-4.6-1.3-7.1c2.7-2.8,5.5-6.5,10.6-3.4
	c1.1,0.7,3.8,0.2,4.8-0.8c3.8-3.3,7.8-6.6,6.5-12.8c-0.2-1.1,1.4-2.9,2.6-3.9c15.7-12,31.4-23.9,47.2-35.7c2.8-2.1,4.3-4.4,4-7.9
	c-0.2-2.5-0.4-5.1,0-7.5c0.5-2.4,1.3-5.1,2.8-7c4.9-6.2,10.1-12.3,15.4-18.2c3.3-3.7,7.3-6.8,10.8-10.3
	c10.5-10.4,20.9-20.8,31.3-31.3c1.1-1.1,2.3-2,3.4-3.1C400.2,115.3,400.5,115.5,400.8,115.8z"/>
<path class="st2" d="M458.2,276.3c2,1.1,4.9,2.6,8.8,4.7c-7-0.4-12.5-1.2-17.9-0.8c-4.7,0.3-9.2,2-13.9,3.1c-4,0.9-8.1,1.6-12,2.6
	c-4.2,1.1-8.4,2.5-12.6,3.6c-0.8,0.2-1.7-0.3-2.6-0.5c-6.7-2.1-13.3-1.8-19.4,1.3c-3.9,2-7,1.6-9.6-2c-2.5-3.7-5.5-7-8.3-10.5
	c-0.4,0.3-0.9,0.6-1.3,0.9c0.5,1.1,0.9,2.2,1.8,4.5c-2.1-0.2-3.9,0.2-4.9-0.5c-6.1-4.1-12.6-7.5-17.5-13.2c-1.1-1.3-4.9-2.1-5.7-1.3
	c-2.3,2.3-0.9,4.9,1.4,6.7c2.5,2,5.1,3.8,7.4,6.1c-14.2-2.4-20.4-15.7-31.3-23.2c1-0.2,1.9-0.7,2.9-0.6c10,0.3,19.9,1.2,29.8,0.7
	c6.4-0.3,11.3,2.2,14.1,6.5c5.5,8.5,13.6,8.9,22,9.8c13.6,1.4,25-3.5,35.1-12.1c3.3-2.8,6.6-2.3,10.2-1.2c3.1,0.9,6.5,1.1,9.5,2.3
	c5.1,2.2,10,4.9,14.8,7.7C459.4,271,458.6,273.5,458.2,276.3z"/>
<path class="st2" d="M254.8,261.1c2,5.1,3.5,10.3,6,15c0.8,1.6,3.8,2.5,6,2.9c3.7,0.7,7.7,0.2,9.6,5.9c-1.9-0.3-3.2-0.6-4.5-0.6
	c-1.9,0-4.5-0.5-5.7,0.5c-1.3,1.1-2.1,3.8-1.8,5.6c1.1,6.8,3,13.5,4.2,20.3c0.4,2.2-0.7,4.6-1.1,6.9c-2.8-0.7-5.9-0.8-8.2-2.3
	c-5.9-3.9-8.7-10.1-10.8-16.7c-1-3.3-3.3-6.1-4.8-9.3c-0.8-1.8-1-3.8-1.9-5.5c-0.7-1.5-1.7-3.3-3-3.9c-0.9-0.4-2.6,0.8-4,1.4
	c-1.1,0.5-2.5,1.8-3.2,1.5c-1.2-0.6-2.6-2.1-2.6-3.2c0.1-9.1,0.6-18.2,0.9-27.3c6.9-3.8,4-10.8,5.2-16.4c0.2-0.9,0.9-1.6,1.7-2.8
	c8.2,6.2,13.1,13.4,12.2,23.9c-0.2,2.3,1.1,4.8,1.8,7.2c0.6,0.2,1.3,0.5,1.9,0.7C253.6,263.2,254.4,261.8,254.8,261.1z"/>
<path class="st2" d="M152.7,165.2c0.2-3.2,0.3-5.8,0.5-10.1c8.9,8.7,16.9,16.6,25.5,25c1.3-4.1,1.9-7.1,3.2-9.9
	c0.5-1,2.4-1.4,3.7-2.1c0.6,1.3,2.1,2.8,1.7,3.8c-3.5,10.6,0.3,21.2,1.2,31.5c0.9,9.3,7.3,18,9.9,27.3c2,7.3,2,15.2,2.7,22.8
	c0.2,2.4,0.3,5-0.4,7.2c-0.9,3-3.2,4.7-5.8,1.6c-2.2-2.5-4.5-5.4-5.3-8.5c-2.6-9.6-5.2-19.1-10.7-27.6c-0.8-1.3-0.9-3.1-0.9-4.7
	c-0.1-8,0.1-16-0.2-24c-0.1-2.3-0.8-5.2-2.3-6.8c-7-7.4-13.8-15.1-24.4-18c-2.3-0.6-4.4-3.3-5.8-5.6c-1.2-2-0.1-3.5,2.5-3.1
	C149.4,164.4,150.8,164.7,152.7,165.2z"/>
<path class="st2" d="M114.4,167.5c-3-2.2-6-4.4-9.1-6.5c-1.9-1.3-3.1-1.2-4.6,1.2c-5.1,7.9-11.7,14.9-12.9,24.8
	c-0.1,0.6-1,1.7-1.5,1.7c-4.8-0.3-9.8-0.4-14.5-1.4c-1.3-0.3-2.7-3.7-2.6-5.5c0.7-9.7,1.4-19.5,3.1-29.1c0.8-4.5,3-9.2,5.8-12.9
	c4.2-5.6,6.6-5.7,12.5-1.9c11.1,7.2,17.7,18.2,24.8,28.7C115,166.9,114.7,167.2,114.4,167.5z M85.4,159.1c0.8,0.3,1.5,0.7,2.3,1
	c2.2-2.7,4.3-5.4,6.5-8.1c-0.2-0.5-0.5-1.1-0.7-1.6c-1.9,0.2-4.9-0.4-5.5,0.6C86.6,153.3,86.2,156.3,85.4,159.1z"/>
<path class="st2" d="M334.4,145.5c7.3,10.2,7,21.4-0.3,28c-2.4-5.5-5.1-10.9-7.1-16.5c-0.6-1.5,0.1-4.1,1.2-5.5
	C329.7,149.3,332.1,147.6,334.4,145.5z"/>
<path class="st2" d="M238.5,167.5c0.7,5-2.8,7.1-6.2,7.5c-2,0.3-4.6-2.1-6.5-3.8c-6.8-6.5-3-13.6,0-21c0.4,1.6,1.3,3.3,1.1,4.9
	c-0.4,4,0.8,6.5,4.6,8C234.1,164.3,236.3,166.1,238.5,167.5z"/>
<path class="st2" d="M280.1,146.1c13.2,3.3,24.3,18,22,30.4C294.7,166.3,287.8,156.8,280.1,146.1z"/>
<path class="st2" d="M325.2,125.7c2.2,4.5,5.9,8.9,6.2,13.5c0.2,3.6-3.9,7.5-6.1,11.2c-6.3-3.7-7-6.2-4.9-11.3
	c1-2.4,1.2-5.1,1.6-7.6c0.3-1.7,0.5-3.4,0.8-5C323.6,126.1,324.4,125.9,325.2,125.7z"/>
<path class="st2" d="M438.4,332.6c-2.2,1.3-3.7,2.8-5.5,3.1c-4,0.7-8.1,1-12.1,0.7c-0.6,0-2.1-4.4-1.4-5.3c1.6-1.8,4.2-2.9,6.6-3.8
	c1-0.4,2.8,1.2,3.8,0.8C435,326.1,437,329.1,438.4,332.6z"/>
<path class="st2" d="M395.8,335.5c2,0,3.4,0,4.9,0c0.2-1.3,0.4-2.5,0.6-3.4c2.9,2.6,6,5,8.5,7.9c0.9,1,0.3,3.2,0.5,4.8
	c-1.5,0.1-3.5,0.8-4.4,0.1C402.3,342.3,397.5,340.9,395.8,335.5z"/>
<path class="st2" d="M250.2,243.6c-2.1-8.1-10.6-12.7-8.8-22.8C246.6,227.9,253.5,233.2,250.2,243.6z"/>
<path class="st2" d="M110.9,180.1c1.6-0.5,3.9-2,4.6-1.5c3.4,2.8,7.7,5.2,7.2,12.4c-4.6-3.5-8.3-6.4-11.9-9.2
	C110.8,181.2,110.9,180.6,110.9,180.1z"/>
<path class="st2" d="M273.2,319.3c2.5,1.4,5.1,2.6,7.3,4.4c0.5,0.4-0.1,3.4-0.9,3.7c-1.7,0.9-5.3,1.7-5.7,1.1
	c-1.4-2.2-1.8-5.1-2.5-7.7C272,320.4,272.6,319.8,273.2,319.3z"/>
<path class="st2" d="M212.6,130.3c-2.7-2.6-5.9-4.9-8-7.9c-0.5-0.8,2.2-3.8,3.8-6.4c1.9,5.5,3.3,9.4,4.6,13.4
	C212.9,129.7,212.7,130,212.6,130.3z"/>
<path class="st2" d="M316.5,190.1c-0.6,2.3-0.6,4-1.4,5c-0.8,0.9-2.5,1.1-3.8,1.6c-0.4-1.1-1-2.2-1.1-3.4c-0.1-0.9,0.3-2,0.8-2.8
	c0.8-1.5,1.8-2.9,2.8-4.4C314.7,187.5,315.7,189,316.5,190.1z"/>
<path class="st2" d="M428.9,348.8c-1.2,3.4-2,5.7-2.8,8c-1-0.5-2.8-0.8-2.9-1.5C422.6,352.3,423.2,349.8,428.9,348.8z"/>
<path class="st2" d="M412.7,339.5c-1.7-3-3-5.3-4.9-8.7c1.1,0,3.5-0.6,4,0.1C413.4,333.2,415,336,412.7,339.5z"/>
<path class="st2" d="M441.5,344c-2.4-1.8-8.6-0.3-5.4-7.9c2.4,2.5,4.5,4.7,6.5,6.8C442.3,343.3,441.9,343.7,441.5,344z"/>
<path class="st2" d="M432.9,352.3c1.6-0.3,3.1-0.8,4.7-0.8c0.4,0,0.7,1.8,1.1,2.8c-1.8,0.3-3.6,0.5-5.4,0.8
	C433.1,354.2,433,353.2,432.9,352.3z"/>
<path class="st2" d="M102.2,195.5c-1.6,1.5-3.3,2.9-4.9,4.4c-0.4-0.6-1.2-1.6-1.1-1.8c1.3-1.6,2.8-3,4.2-4.5
	C101.1,194.2,101.7,194.8,102.2,195.5z"/>
<path class="st2" d="M357.9,242.8c0.9-1.2,1.8-2.5,2.7-3.7c0.4,0.3,0.9,0.5,1.3,0.8c-0.8,1.3-1.5,2.6-2.3,3.9
	C359,243.5,358.4,243.2,357.9,242.8z"/>
<path class="st2" d="M440.9,356.8c-0.1,1.3-0.2,2.5-0.4,3.8c-0.4,0-0.7,0-1.1-0.1c0-1.2,0-2.4,0-3.6
	C440,356.8,440.5,356.8,440.9,356.8z"/>
<path class="st2" d="M428.3,362.5c0-1,0.1-2,0.1-3c0.4,0,0.8,0,1.1,0c0.1,1,0.1,2,0.2,3C429.3,362.5,428.8,362.5,428.3,362.5z"/>
<path class="st2" d="M429.9,374.3c-0.4-1-0.8-1.6-0.7-2c0.1-0.5,0.8-1,1.2-1.1c0.4,0,1.2,0.9,1.2,1
	C431.3,372.8,430.7,373.3,429.9,374.3z"/>
<path class="st2" d="M415.2,259.9c0.7-0.5,1.3-1.1,2-1.6c0.2,0.2,0.4,0.4,0.6,0.7c-0.6,0.6-1.1,1.2-1.7,1.8
	C415.8,260.5,415.5,260.2,415.2,259.9z"/>
<path class="st2" d="M369.1,255.2c0.3,0.6,0.8,1,0.7,1.2c-0.2,0.4-0.7,0.7-1.1,1.1c-0.2-0.4-0.5-0.8-0.5-1.2
	C368.3,256,368.7,255.7,369.1,255.2z"/>
<path class="st2" d="M138.7,235.1c-0.2,0.2-0.6,0.5-0.6,0.5c-0.3-0.2-0.5-0.6-0.7-0.8c0.2-0.1,0.5-0.3,0.7-0.3
	C138.3,234.4,138.5,234.8,138.7,235.1z"/>
<path class="st2" d="M240.4,219.4c-0.1-0.3-0.2-0.5-0.2-0.6c0,0,0.2-0.1,0.3-0.1C240.6,218.9,240.5,219.1,240.4,219.4z"/>
<path class="st1" d="M272.8,416.7c-1.6-5.3-3.1-10.7-4.8-16c-0.6-1.8-3.7-4.1-0.4-5.1c2.5-0.8,7.7,0,8.3,1.6
	c4.3,9.7,10.6,19.4,4.2,30.9c-1.8,3.2-1.7,7.5-3.3,10.9c-1,2.1-3.4,3.5-5.3,5.1c-0.8,0.7-2.2,0.7-3.1,1.3
	c-5.6,4.3-14.8,4.6-19.3-0.9c-5-6.1-8.6-13.2-12.9-19.8c-2.7-4.1-5.4-8.3-8.5-12.1c-3.8-4.8-4-15.6,0.8-19.3c1.7-1.3,5.3-0.4,7.9,0
	c0.9,0.2,1.7,2,2.3,3.2c1.8,3.4,2.9,7.7,5.5,10.2c4.7,4.4,6.6,9.9,8.3,15.6c2.2,7.5,4.5,10.2,9.6,9.8c5-0.4,9.3-5.9,9.7-12.2
	c0.1-1,0-2,0-3C272.3,416.8,272.6,416.7,272.8,416.7z"/>
<path class="st1" d="M123.3,345.7c-1.3-18.3,14.4-44.5,31.6-51.8c-1.5,3.1-2,5.8-3.6,7.1c-10.6,8.3-15.3,20.3-21,31.7
	c-0.4,0.8-0.6,1.9-0.4,2.8C131.1,340.9,127.9,343.4,123.3,345.7z"/>
<path class="st2" d="M184.3,396.5c-0.1,0.1-0.2,0.1-0.3,0.2c-0.1-0.2-0.2-0.3-0.3-0.5c0.1,0,0.3-0.1,0.4,0
	C184.3,396.3,184.3,396.4,184.3,396.5z"/>
<path class="st2" d="M88.9,337.7c-0.3,1-0.6,2-0.9,3.1c-0.6-0.2-1.7-0.4-1.6-0.6c0.1-1,0.5-2,0.7-3
	C87.7,337.4,88.3,337.5,88.9,337.7z"/>
<path class="st2" d="M42.8,374c-0.6,0.6-1.3,1.1-1.9,1.7c-0.2-0.2-0.4-0.4-0.7-0.6c0.5-0.7,1.1-1.3,1.6-2
	C42.2,373.4,42.5,373.7,42.8,374z"/>
<path class="st2" d="M92.9,315.7c-0.2-0.2-0.3-0.5-0.5-0.7c0.3-0.2,0.6-0.3,1-0.5c0.1,0.3,0.3,0.6,0.2,0.8
	C93.5,315.5,93.1,315.5,92.9,315.7z"/>
<path class="st1" d="M85.4,159.1c0.8-2.8,1.2-5.8,2.6-8.2c0.6-1,3.6-0.4,5.5-0.6c0.2,0.5,0.5,1.1,0.7,1.6c-2.2,2.7-4.3,5.4-6.5,8.1
	C86.9,159.7,86.2,159.4,85.4,159.1z"/>
<path class="st3" d="M210.2,256v60.1c0,15.2,4.1,26.9,12.3,35.1s19.5,12.3,34,12.3c14.4,0,25.6-4.1,33.6-12.3
	c7.9-8.2,11.9-19.9,11.9-35.1h33.1c0,15.7-3.2,29.3-9.5,41s-15.4,20.6-27.2,26.8c-11.8,6.2-25.7,9.4-41.9,9.4s-30.2-3.1-42.1-9.2
	c-11.9-6.1-21.1-15-27.6-26.6s-9.7-25.4-9.7-41.3V256v-61c0-16.2,3.2-30,9.7-41.5s15.7-20.3,27.6-26.5c11.9-6.1,25.9-9.2,42.1-9.2
	s30.1,3.1,41.9,9.4c11.8,6.2,20.8,15.1,27.2,26.6s9.5,25.2,9.5,41.1H302c0-15.2-4-26.9-11.9-35.1c-8-8.2-19.2-12.3-33.6-12.3
	c-14.5,0-25.8,4-34,12.1s-12.3,19.7-12.3,34.9V256z"/>
<g>
	<g>
		<polyline class="st4" points="210.6,256.5 255.6,256.5 255.7,256.5 342.1,256.5 		"/>
		<line class="st4" x1="126.9" y1="256.5" x2="177.5" y2="256.5"/>
		<polyline class="st4" points="474.6,37.5 474.3,37.8 404,108.1 		"/>
		<polyline class="st4" points="291.1,221 255.6,256.5 255.6,256.5 220.5,291.6 		"/>
		<polyline class="st4" points="474.5,475.3 474,474.8 404,404.8 		"/>
		<polyline class="st4" points="291,291.8 255.7,256.5 255.6,256.5 220.5,221.3 		"/>
		<polyline class="st4" points="37.4,37.5 37.7,37.8 77.2,77.3 		"/>
		<line class="st4" x1="37.7" y1="474.6" x2="95.9" y2="416.3"/>
	</g>
	<polyline class="st4" points="129.4,88.3 129.4,132.4 129.4,132.5 129.4,183 	"/>
</g>
<path class="st1" d="M581.6,230.4c-4.5,0-8.4-0.8-11.7-2.5c-3.3-1.7-5.9-4.1-7.7-7.3c-1.8-3.2-2.7-6.9-2.7-11.2v-32.1
	c0-4.4,0.9-8.1,2.7-11.3c1.8-3.2,4.4-5.6,7.7-7.3c3.3-1.7,7.2-2.5,11.7-2.5c4.5,0,8.4,0.9,11.7,2.6c3.3,1.7,5.9,4.1,7.7,7.3
	c1.8,3.1,2.7,6.9,2.7,11.2H593c0-3.8-1-6.6-3-8.6c-2-2-4.8-3-8.4-3c-3.6,0-6.5,1-8.5,3c-2,2-3,4.8-3,8.5v32.2c0,3.7,1,6.6,3,8.6
	c2,2,4.8,3,8.5,3c3.6,0,6.4-1,8.4-3c2-2,3-4.9,3-8.6h10.7c0,4.3-0.9,8-2.7,11.2c-1.8,3.2-4.4,5.6-7.7,7.3
	C590,229.5,586.1,230.4,581.6,230.4z"/>
<path class="st1" d="M648.4,229.4c-3.4,0-6.3-0.7-8.8-2c-2.5-1.4-4.5-3.3-5.9-5.8c-1.4-2.5-2.1-5.4-2.1-8.7v-46h-17.8v-9.7h28.5
	v55.7c0,2.1,0.6,3.8,1.8,5c1.2,1.2,2.8,1.8,4.9,1.8h16.8v9.7H648.4z"/>
<path class="st1" d="M700,230.4c-4.4,0-8.3-0.9-11.6-2.6c-3.3-1.7-5.9-4.2-7.7-7.4c-1.8-3.2-2.7-6.9-2.7-11.1v-14.3
	c0-4.3,0.9-8,2.7-11.1c1.8-3.1,4.3-5.6,7.7-7.3c3.3-1.7,7.2-2.6,11.6-2.6c4.5,0,8.4,0.9,11.7,2.6c3.3,1.7,5.8,4.2,7.6,7.3
	c1.8,3.1,2.7,6.8,2.7,11.1v9.7h-33.7v4.6c0,4,1,7.1,3,9.2c2,2.1,4.9,3.2,8.8,3.2c3.1,0,5.6-0.5,7.5-1.6c1.9-1.1,3.1-2.7,3.6-4.8
	h10.6c-0.8,4.6-3.2,8.3-7.1,11C710.7,229,705.8,230.4,700,230.4z M711.7,198.3V195c0-4-1-7-3-9.2c-2-2.2-4.9-3.3-8.7-3.3
	c-3.8,0-6.7,1.1-8.7,3.3c-2,2.2-3,5.3-3,9.3v2.5l24.2-0.1L711.7,198.3z"/>
<path class="st1" d="M754,230.4c-5.7,0-10.1-1.5-13.4-4.4c-3.3-2.9-4.9-6.9-4.9-12c0-5.1,1.7-9.2,5.2-12.1c3.5-2.9,8.2-4.4,14.3-4.4
	h15.1v-5c0-3-0.9-5.3-2.8-6.9c-1.8-1.6-4.5-2.5-7.8-2.5c-3,0-5.4,0.6-7.4,1.9c-2,1.3-3.1,3-3.5,5.1h-10.5c0.6-4.9,2.9-8.8,6.8-11.7
	c3.9-2.9,8.9-4.4,14.9-4.4c6.5,0,11.6,1.6,15.3,4.9c3.8,3.3,5.6,7.7,5.6,13.3v37.2h-10.4v-10h-1.8l1.8-2c0,4-1.5,7.1-4.6,9.5
	C763,229.2,759,230.4,754,230.4z M757.1,222.2c3.8,0,7-1,9.5-2.9c2.5-1.9,3.7-4.4,3.7-7.5v-7.1h-14.9c-2.8,0-5,0.8-6.6,2.3
	c-1.6,1.5-2.4,3.6-2.4,6.2c0,2.8,1,5,2.9,6.6C751.1,221.4,753.8,222.2,757.1,222.2z"/>
<path class="st1" d="M797.4,229.4V175H808v10.4h2.6l-2.6,2.5c0-4.4,1.3-7.8,3.9-10.2c2.6-2.4,6.1-3.7,10.7-3.7c5.4,0,9.7,1.7,13,5.2
	c3.2,3.5,4.9,8.1,4.9,14v36.2h-10.7v-35c0-3.6-1-6.3-2.9-8.2c-1.9-1.9-4.5-2.9-7.8-2.9c-3.4,0-6,1-8,3c-1.9,2-2.9,4.9-2.9,8.8v34.4
	H797.4z"/>
<path class="st1" d="M581.6,339.4c-4.5,0-8.4-0.8-11.7-2.5c-3.3-1.7-5.9-4.1-7.7-7.3c-1.8-3.2-2.7-6.9-2.7-11.2v-32.1
	c0-4.4,0.9-8.1,2.7-11.3c1.8-3.2,4.4-5.6,7.7-7.3c3.3-1.7,7.2-2.5,11.7-2.5c4.5,0,8.4,0.9,11.7,2.6c3.3,1.7,5.9,4.1,7.7,7.3
	c1.8,3.1,2.7,6.9,2.7,11.2H593c0-3.8-1-6.6-3-8.6c-2-2-4.8-3-8.4-3c-3.6,0-6.5,1-8.5,3c-2,2-3,4.8-3,8.5v32.2c0,3.7,1,6.6,3,8.6
	c2,2,4.8,3,8.5,3c3.6,0,6.4-1,8.4-3c2-2,3-4.9,3-8.6h10.7c0,4.3-0.9,8-2.7,11.2c-1.8,3.2-4.4,5.6-7.7,7.3
	C590,338.5,586.1,339.4,581.6,339.4z"/>
<path class="st1" d="M640.6,339.3c-4.5,0-8.4-0.9-11.7-2.6c-3.3-1.7-5.8-4.2-7.6-7.3c-1.8-3.2-2.7-6.9-2.7-11.2v-14.1
	c0-4.4,0.9-8.1,2.7-11.2c1.8-3.1,4.3-5.6,7.6-7.3c3.3-1.7,7.2-2.6,11.7-2.6c4.5,0,8.4,0.9,11.7,2.6c3.3,1.7,5.8,4.1,7.6,7.3
	c1.8,3.1,2.7,6.9,2.7,11.2v14.1c0,4.3-0.9,8-2.7,11.2s-4.3,5.6-7.6,7.3C649,338.4,645.1,339.3,640.6,339.3z M640.6,329.9
	c3.6,0,6.4-1,8.4-3c2-2,3-4.9,3-8.7v-14.1c0-3.8-1-6.7-3-8.7c-2-2-4.8-3-8.4-3c-3.6,0-6.4,1-8.4,3c-2,2-3,4.9-3,8.7v14.1
	c0,3.8,1,6.7,3,8.7C634.3,328.9,637,329.9,640.6,329.9z"/>
<path class="st1" d="M676.1,338.4V284h8.9v6.9h2l-1.5,2.1c0-3,0.8-5.5,2.5-7.3c1.6-1.8,3.9-2.7,6.6-2.7c3,0,5.3,1.2,6.9,3.5
	c1.6,2.3,2.4,5.5,2.4,9.5l-2.4-5h3.8l-1.6,2.1c0-3,0.8-5.5,2.5-7.3c1.7-1.8,3.9-2.7,6.8-2.7c3.4,0,6,1.3,7.9,3.8
	c1.9,2.5,2.9,5.9,2.9,10.1v41.5h-9.5v-41.2c0-2-0.4-3.6-1.3-4.8c-0.9-1.1-2.2-1.7-3.8-1.7c-1.7,0-2.9,0.5-3.8,1.6
	c-0.9,1.1-1.3,2.7-1.3,4.7v41.3h-8v-41.2c0-2.1-0.5-3.7-1.4-4.8c-0.9-1.1-2.2-1.6-4-1.6c-1.7,0-2.9,0.5-3.7,1.6
	c-0.8,1.1-1.2,2.7-1.2,4.7v41.3H676.1z"/>
<path class="st1" d="M738,356.2V284h10.6v10.4h2.3l-2.3,2.5c0-4.3,1.3-7.7,4-10.1c2.7-2.5,6.3-3.7,10.7-3.7c5.5,0,9.9,1.8,13.1,5.5
	c3.3,3.7,4.9,8.7,4.9,15v15.3c0,4.2-0.7,7.9-2.2,10.9c-1.5,3.1-3.6,5.4-6.2,7.1c-2.7,1.7-5.9,2.5-9.6,2.5c-4.4,0-8-1.2-10.7-3.7
	c-2.7-2.5-4.1-5.9-4.1-10.1l2.3,2.5h-2.5l0.3,12.7v15.5H738z M759.7,330.1c3.5,0,6.2-1,8.2-3c1.9-2,2.9-4.9,2.9-8.8v-14.3
	c0-3.8-1-6.7-2.9-8.8c-1.9-2-4.7-3-8.2-3c-3.4,0-6,1-8,3.1c-2,2.1-3,5-3,8.7v14.3c0,3.7,1,6.6,3,8.7
	C753.7,329.1,756.3,330.1,759.7,330.1z"/>
<path class="st1" d="M818.8,339.3c-4.5,0-8.4-0.9-11.7-2.6c-3.3-1.7-5.8-4.2-7.6-7.3c-1.8-3.2-2.7-6.9-2.7-11.2v-14.1
	c0-4.4,0.9-8.1,2.7-11.2c1.8-3.1,4.3-5.6,7.6-7.3c3.3-1.7,7.2-2.6,11.7-2.6c4.5,0,8.4,0.9,11.7,2.6c3.3,1.7,5.8,4.1,7.6,7.3
	c1.8,3.1,2.7,6.9,2.7,11.2v14.1c0,4.3-0.9,8-2.7,11.2s-4.3,5.6-7.6,7.3C827.2,338.4,823.3,339.3,818.8,339.3z M818.8,329.9
	c3.6,0,6.4-1,8.4-3c2-2,3-4.9,3-8.7v-14.1c0-3.8-1-6.7-3-8.7c-2-2-4.8-3-8.4-3c-3.6,0-6.4,1-8.4,3c-2,2-3,4.9-3,8.7v14.1
	c0,3.8,1,6.7,3,8.7C812.4,328.9,815.2,329.9,818.8,329.9z"/>
<path class="st1" d="M856.8,338.4V284h10.6v10.4h2.6l-2.6,2.5c0-4.4,1.3-7.8,3.9-10.2c2.6-2.4,6.1-3.7,10.7-3.7
	c5.4,0,9.7,1.7,13,5.2c3.2,3.5,4.9,8.1,4.9,14v36.2h-10.7v-35c0-3.6-1-6.3-2.9-8.2c-1.9-1.9-4.5-2.9-7.8-2.9c-3.4,0-6,1-8,3
	c-1.9,2-2.9,4.9-2.9,8.8v34.4H856.8z"/>
<path class="st1" d="M937.6,339.4c-4.4,0-8.3-0.9-11.6-2.6c-3.3-1.7-5.9-4.2-7.7-7.4c-1.8-3.2-2.7-6.9-2.7-11.1v-14.3
	c0-4.3,0.9-8,2.7-11.1c1.8-3.1,4.3-5.6,7.7-7.3c3.3-1.7,7.2-2.6,11.6-2.6c4.5,0,8.4,0.9,11.7,2.6c3.3,1.7,5.8,4.2,7.6,7.3
	c1.8,3.1,2.7,6.8,2.7,11.1v9.7h-33.7v4.6c0,4,1,7.1,3,9.2c2,2.1,4.9,3.2,8.8,3.2c3.1,0,5.6-0.5,7.5-1.6c1.9-1.1,3.1-2.7,3.6-4.8
	h10.6c-0.8,4.6-3.2,8.3-7.1,11C948.3,338,943.4,339.4,937.6,339.4z M949.3,307.3V304c0-4-1-7-3-9.2c-2-2.2-4.9-3.3-8.7-3.3
	c-3.8,0-6.7,1.1-8.7,3.3c-2,2.2-3,5.3-3,9.3v2.5l24.2-0.1L949.3,307.3z"/>
<path class="st1" d="M975.6,338.4V284h10.6v10.4h2.6l-2.6,2.5c0-4.4,1.3-7.8,3.9-10.2c2.6-2.4,6.1-3.7,10.7-3.7
	c5.4,0,9.7,1.7,13,5.2c3.2,3.5,4.9,8.1,4.9,14v36.2h-10.7v-35c0-3.6-1-6.3-2.9-8.2c-1.9-1.9-4.5-2.9-7.8-2.9c-3.4,0-6,1-8,3
	c-1.9,2-2.9,4.9-2.9,8.8v34.4H975.6z"/>
<path class="st1" d="M1062.3,338.4c-4.9,0-8.8-1.4-11.6-4.1c-2.8-2.7-4.2-6.5-4.2-11.3v-29.4h-15V284h15v-15.3h10.7V284h21.3v9.7
	h-21.3v29.4c0,3.8,1.8,5.6,5.4,5.6h14.8v9.7H1062.3z"/>
<path class="st1" d="M1113.9,339.3c-3.9,0-7.3-0.6-10.2-1.9c-2.9-1.3-5.2-3-6.9-5.2c-1.7-2.2-2.7-4.8-2.9-7.9h10.7
	c0.3,1.8,1.2,3.2,2.9,4.3c1.6,1.1,3.8,1.6,6.5,1.6h4.3c3.2,0,5.7-0.7,7.3-2c1.6-1.3,2.5-3.1,2.5-5.2c0-2.1-0.7-3.8-2.2-5
	c-1.5-1.2-3.7-2-6.6-2.4l-7-1.1c-5.8-0.9-10.1-2.6-12.8-5c-2.7-2.4-4.1-6-4.1-10.7c0-5,1.6-8.9,4.9-11.6c3.3-2.7,8.1-4.1,14.5-4.1
	h3.8c5.7,0,10.2,1.3,13.6,3.9c3.4,2.6,5.3,6.1,5.8,10.4h-10.7c-0.3-1.6-1.1-2.9-2.6-3.9c-1.5-1-3.5-1.5-6.1-1.5h-3.8
	c-3.1,0-5.4,0.6-6.8,1.7c-1.4,1.2-2.1,2.9-2.1,5.1c0,2,0.6,3.5,1.9,4.5c1.3,1,3.2,1.7,5.8,2.1l7.2,1.2c6.1,0.9,10.6,2.6,13.5,5.1
	c2.9,2.5,4.3,6.2,4.3,11c0,5.2-1.7,9.3-5.1,12.2c-3.4,2.9-8.5,4.4-15.2,4.4H1113.9z"/>
</svg>
